<?xml version="1.0" standalone="no"?>
<!DOCTYPE svg PUBLIC "-//W3C//DTD SVG 20010904//EN"
 "http://www.w3.org/TR/2001/REC-SVG-20010904/DTD/svg10.dtd">
<svg version="1.0" xmlns="http://www.w3.org/2000/svg"
 width="237.000000pt" height="430.000000pt" viewBox="0 0 237.000000 430.000000"
 preserveAspectRatio="xMidYMid meet">

<g transform="translate(0.000000,430.000000) scale(0.100000,-0.100000)"
fill="#000000" stroke="none">
<path d="M1150 4273 c0 -21 37 -495 46 -599 8 -81 0 -124 -20 -124 -26 0 -45
83 -57 240 -17 240 -22 275 -39 275 -21 0 -59 -133 -66 -230 -3 -44 -12 -276
-19 -515 -12 -376 -17 -444 -34 -503 -12 -39 -24 -128 -31 -215 -5 -81 -15
-176 -20 -212 -13 -87 -13 -332 1 -367 5 -15 34 -53 63 -83 78 -82 96 -123
105 -243 9 -117 3 -307 -10 -307 -13 0 -29 36 -29 68 0 16 -6 35 -14 41 -10 9
-23 -1 -59 -48 -35 -44 -43 -60 -32 -64 29 -12 43 -64 54 -207 11 -141 4 -262
-18 -323 -6 -15 1 -48 20 -104 16 -46 29 -91 29 -102 0 -10 20 -101 44 -202
24 -101 54 -233 67 -293 24 -116 50 -166 75 -145 9 7 14 32 14 73 0 33 20 211
45 393 24 183 54 437 65 565 12 128 28 247 35 264 13 30 11 34 -47 122 -33 51
-64 89 -69 87 -4 -3 -11 -30 -14 -60 -4 -31 -12 -55 -19 -55 -47 1 -57 73 -26
207 48 212 75 278 155 377 l47 57 -11 82 c-32 240 -63 610 -96 1172 -14 231
-27 431 -30 445 -3 14 -18 130 -35 258 -26 202 -46 292 -65 292 -3 0 -5 -8 -5
-17z"/>
<path d="M2295 3913 c-8 -42 -27 -93 -94 -256 -33 -82 -88 -242 -122 -355 -33
-114 -78 -256 -99 -317 -21 -60 -44 -135 -51 -165 -7 -30 -20 -73 -30 -96 -9
-23 -40 -175 -69 -338 -49 -284 -51 -298 -34 -317 27 -30 41 -23 59 30 18 55
37 76 60 67 21 -8 19 -27 -11 -112 -25 -70 -26 -75 -11 -113 9 -21 19 -72 23
-113 6 -67 4 -79 -19 -123 -13 -28 -28 -63 -31 -80 -4 -16 -23 -57 -42 -90
-72 -125 -77 -146 -88 -390 -2 -52 26 -34 70 45 40 70 83 120 105 120 35 0
-20 -131 -94 -223 -61 -75 -89 -152 -107 -291 -5 -44 -18 -93 -29 -111 -18
-31 -18 -32 1 -58 11 -15 24 -25 29 -21 17 10 39 62 69 166 17 60 70 189 125
306 52 111 161 367 241 570 80 202 163 400 185 440 48 90 30 92 -37 2 -52 -69
-266 -250 -296 -250 -10 0 -22 9 -28 19 -16 32 9 71 72 110 56 36 226 180 227
193 1 4 -8 9 -18 13 -16 5 -20 15 -19 48 0 23 -3 197 -7 387 -6 285 -4 371 9
495 9 82 12 153 7 158 -10 10 -57 -96 -95 -210 -26 -79 -57 -133 -77 -133 -5
0 -9 26 -9 57 0 47 9 75 49 162 27 58 61 142 75 186 40 122 136 512 139 563 2
51 -19 71 -28 25z"/>
<path d="M16 3848 c2 -46 6 -137 8 -203 3 -80 12 -143 25 -190 27 -91 26 -107
-6 -145 l-26 -32 23 -56 c13 -31 50 -114 82 -183 47 -102 58 -135 58 -177 0
-29 -4 -52 -8 -52 -16 0 -53 42 -76 88 -31 60 -62 99 -72 89 -5 -4 11 -85 34
-180 42 -170 42 -174 43 -357 1 -102 4 -227 7 -278 l7 -93 133 -131 c92 -90
135 -139 139 -159 3 -16 8 -29 12 -29 20 1 26 24 27 100 1 94 13 129 70 193
37 40 39 51 24 124 -5 26 -16 91 -24 143 -8 53 -49 208 -90 345 -41 138 -138
468 -216 735 -137 472 -156 530 -171 530 -4 0 -5 -37 -3 -82z"/>
<path d="M20 2004 c0 -10 18 -47 40 -84 22 -36 87 -189 145 -340 58 -151 121
-311 139 -355 18 -44 43 -111 54 -150 28 -91 78 -175 177 -293 56 -67 81 -91
83 -79 5 24 -27 115 -42 124 -7 5 -41 46 -75 92 -61 84 -74 124 -49 149 9 9
23 -4 61 -53 63 -83 80 -88 52 -18 -28 75 -45 164 -56 295 -11 138 -16 153
-68 205 -16 17 -33 43 -36 59 -21 99 -66 156 -245 314 -178 156 -180 158 -180
134z"/>
</g>
</svg>
