<?xml version="1.0" standalone="no"?>
<!DOCTYPE svg PUBLIC "-//W3C//DTD SVG 20010904//EN"
 "http://www.w3.org/TR/2001/REC-SVG-20010904/DTD/svg10.dtd">
<svg version="1.0" xmlns="http://www.w3.org/2000/svg"
 width="996.000000pt" height="1200.000000pt" viewBox="0 0 996.000000 1200.000000"
 preserveAspectRatio="xMidYMid meet">

<g transform="translate(0.000000,1200.000000) scale(0.100000,-0.100000)"
fill="#000000" stroke="none">
<path d="M5042 11953 c-11 -26 -572 -1400 -1247 -3053 -675 -1653 -1250 -3054
-1279 -3115 -191 -400 -511 -726 -901 -916 -166 -81 -226 -93 -460 -93 -164 0
-221 4 -317 22 -166 31 -351 95 -508 174 -74 37 -136 68 -137 68 -1 0 10 -26
24 -57 83 -187 168 -485 203 -719 28 -178 38 -539 21 -710 -25 -245 -76 -481
-146 -683 -20 -57 -35 -105 -33 -107 2 -1 29 6 61 16 170 56 398 42 572 -34
136 -61 421 -276 670 -506 168 -156 361 -297 575 -422 163 -95 757 -390 930
-462 208 -86 587 -213 795 -266 178 -46 517 -115 610 -125 51 -5 37 2 -100 44
-322 100 -594 210 -915 371 -295 148 -444 253 -622 438 -252 263 -426 599
-467 902 -19 142 -22 258 -11 381 20 220 53 349 155 599 35 85 192 508 350
940 158 432 346 947 419 1145 72 198 456 1245 851 2327 396 1082 722 1965 724
1962 2 -2 620 -1483 1374 -3291 753 -1809 1386 -3329 1407 -3378 77 -184 105
-356 97 -593 -12 -390 -126 -643 -431 -961 -183 -190 -376 -327 -662 -469
-350 -175 -648 -287 -989 -373 -104 -26 -185 -48 -180 -48 6 -1 77 10 159 24
952 162 1855 529 2626 1068 205 143 269 197 418 346 149 149 245 223 379 290
249 124 496 157 689 91 31 -11 58 -20 60 -20 1 0 -8 27 -21 59 -53 137 -114
369 -140 536 -83 537 -13 1078 200 1560 29 66 52 121 50 123 -2 2 -45 -10 -97
-28 -123 -41 -304 -77 -458 -91 -364 -34 -806 53 -1060 209 -320 195 -573 467
-749 804 -36 68 -411 983 -934 2278 -481 1191 -1022 2530 -1202 2975 -180 446
-328 811 -330 813 -1 1 -11 -19 -23 -45z"/>
<path d="M75 2475 c333 -433 783 -878 1213 -1202 144 -108 646 -445 808 -542
442 -267 960 -468 1493 -581 523 -111 1012 -156 1581 -147 807 13 1324 112
2015 384 356 140 801 375 1110 588 697 478 1149 890 1543 1405 122 160 128
169 56 90 -174 -192 -403 -420 -574 -571 -612 -542 -1386 -992 -2145 -1248
-323 -108 -579 -155 -920 -168 -262 -9 -626 29 -766 80 -203 73 -362 221 -454
420 -32 70 -33 71 -40 42 -14 -53 -65 -152 -110 -213 -89 -122 -215 -199 -418
-258 -207 -59 -343 -78 -572 -78 -167 1 -226 5 -361 27 -764 124 -1447 398
-2102 843 -458 311 -824 614 -1217 1009 -195 195 -205 204 -140 120z"/>
</g>
</svg>
