<svg xmlns="http://www.w3.org/2000/svg" height="800" width="1200" viewBox="-91.56336 -13.286075 793.54912 79.71645"><path d="M111.7694 52.8027c-3.0775-.5-8.5788-2.4405-11.089-3.9116-2.9783-1.7454-6.9635-5.9183-8.6163-9.022-1.9426-3.6482-2.93-8.1704-2.9217-13.3807C89.169 10.0254 99.9634.0597 117.8338.0002c8.5441-.0284 16.2596 2.5886 21.0843 7.1515 5.281 4.9946 7.6188 10.863 7.6188 19.1245 0 3.1457-.283 6.2156-.7333 7.9534-2.2695 8.7582-8.4913 14.921-17.8397 17.6703-3.5095 1.0321-12.3611 1.5256-16.1945.9028zm10.5003-14.9887c3.4953-1.7709 5.5216-5.1246 5.9239-9.8043.3527-4.1033-.7244-7.7822-3.0258-10.3348-5.1713-5.7357-12.578-4.5304-16.3397 2.659-1.0371 1.982-1.2213 2.9306-1.2234 6.3001-.003 4.1655.447 5.5487 2.8439 8.7507 2.6522 3.543 7.6112 4.5621 11.821 2.4293zM229.839 53.0243c-.2567-.1024-1.8384-.3188-3.515-.4809-1.6766-.162-3.3335-.4708-3.682-.6862-.6108-.3774-2.3374-10.5213-2.36-13.8646l-.01-1.4752 3.1501 1.1569c3.716 1.3646 10.984 2.0209 12.6293 1.1403 1.953-1.0452 1.3031-2.539-2.5957-5.9671-8.318-7.3136-10.7863-10.3857-12.0784-15.033-.6455-2.3218-.6884-3.2411-.2524-5.4118 1.0205-5.0819 3.1942-8.0215 7.6796-10.386C231.218.7444 231.3152.7336 240.106.7547c5.5564.0135 9.5952.2347 10.8178.5927 1.9371.5672 1.9532.5902 2.2662 3.2454.1733 1.4707.585 4.6692.9146 7.1075.3297 2.4384.5154 4.5744.4126 4.7465-.1028.1722-1.3924-.1123-2.8657-.6321-3.794-1.3388-9.511-1.6845-11.0609-.669-2.2168 1.4526-1.3118 3.189 3.638 6.9802 4.6345 3.5499 9.008 8.2147 10.2196 10.9007.66 1.463 1.0191 3.213 1.0345 5.041.052 6.172-2.5534 10.5407-7.9099 13.2634l-3.2667 1.6604-7.0002.1096c-3.8501.0603-7.2102.0257-7.4669-.0767zm46.2011-.4386c-3.2246-.8516-6.8586-2.3694-9.177-3.833-4.7717-3.0122-9.154-9.5043-10.2052-15.1185-.6296-3.3626-.6354-10.3124-.0113-13.4873 1.1172-5.6825 5.0555-11.5556 10.018-14.9395 2.4703-1.6846 7.502-3.6736 10.8969-4.3077 4.3033-.8037 15.1747-.2492 18.499.9436 9.1845 3.2956 14.8327 9.35 16.8955 18.1108 1.0118 4.2972.6675 12.8078-.6706 16.5743-2.6677 7.5089-7.6834 12.228-16.4115 15.4405-3.281 1.2077-16.0883 1.606-19.8338.6168zm12.4987-13.9824c3.5377-1.4867 6.3146-5.8315 6.7424-10.5498.8424-9.2895-7.5385-16.3237-14.8149-12.4344-2.3151 1.2374-4.8196 4.4692-5.5771 7.1968-1.7909 6.4478 1.2212 13.7799 6.5317 15.8992 1.6854.6727 5.3895.6145 7.1179-.1118zm27.6856 13.4265c-.1558-.406-.2833-11.8092-.2833-25.3406 0-18.513.1386-24.741.56-25.1624.8042-.8043 36.81-.8043 37.6143 0 .5889.5889.8218 11.2815.2767 12.7021-.2461.6414-1.5958.7382-10.2913.7382h-10.008l.141 2.45.1411 2.4501 8.1669.2334 8.1668.2333.1294 6.6393.1294 6.6394-8.2962.1275-8.2963.1275-.1263 9.4502-.1264 9.4502h-8.8073c-7.6006 0-8.846-.1011-9.0905-.7382zm55.8214.1881c-.4295-.4294-.57-5.0878-.57-18.8979V14.992l-6.8835-.1291-6.8835-.1291-.1294-6.6381c-.1284-6.5865-.121-6.6402.9442-6.9075.5905-.1483 11.779-.2054 24.8633-.127 20.7432.1242 24.047.241 25.7986.9115 5.0268 1.9246 8.0832 5.5931 8.9683 10.7647.9965 5.8224 1.9046 11.3941 2.379 14.5967.8816 5.9509.906 5.906 2.5365-4.6668 1.4553-9.4368 2.0214-13.1506 2.5608-16.8004.318-2.1515.8437-3.9658 1.2407-4.2818.7955-.6331 16.341-.8547 17.2808-.2463.3157.2044.9004 2.0418 1.2993 4.0832.3988 2.0414.9208 4.5516 1.16 5.5783.239 1.0267 1.2086 5.9618 2.1545 10.967.9459 5.005 1.855 9.2565 2.02 9.4476.1653.191.6739-2.224 1.1303-5.3668.4564-3.1428 1.0137-6.7642 1.2385-8.0476.2248-1.2834.8714-5.3785 1.4368-9.1002.5654-3.7218 1.1883-6.9769 1.3844-7.2335.273-.3575 11.3624-.5623 14.6073-.2698.2224.02.2688.509.103 1.0864-.4665 1.6244-3.8205 17.44-7.1012 33.4842-1.809 8.8471-3.9373 12.5849-8.6407 15.1745-2.2933 1.2626-2.9549 1.3905-8.0257 1.5514-3.1525.1-5.7182-.0166-5.973-.2713-.4626-.4626-1.1493-3.6621-3.6816-17.1546-.819-4.3634-1.5777-8.2312-1.6861-8.595-.417-1.398-.9802.3796-1.7622 5.5616-1.4599 9.6748-3.159 19.827-3.3781 20.1838-.339.552-18.2572.4278-18.6012-.129-.1629-.2634-1.3179-5.566-2.5668-11.7836-3.3962-16.908-5.024-24.5294-5.3526-25.061-.179-.2896-2.9435-.4773-7.029-.4773h-6.734l-.122 18.7838-.122 18.7838-8.6468.1266c-6.332.0927-8.7996-.026-9.217-.4434zm88.3511.114c-.1483-.2398.3872-1.8674 1.1898-3.6167 2.7217-5.9317 12.8849-29.7388 16.2997-38.1816 1.8686-4.62 3.7215-8.6627 4.1174-8.9835.5253-.4258 3.397-.5834 10.6308-.5834 10.9003 0 10.9173.004 11.7899 2.9325.246.8256.893 2.656 1.4378 4.0677.5447 1.4117 1.4907 3.9318 2.1022 5.6002 1.2693 3.4636 5.5995 14.6403 9.1307 23.5672 1.3198 3.3368 2.5107 6.4343 2.6464 6.8835.853 2.8236 1.0712-1.4217 1.0712-20.834 0-19.312.0797-21.6811.7382-21.9338.406-.1558 7.2837-.2796 15.2837-.2751 18.4323.0103 21.0777.4743 25.5048 4.4739 2.377 2.1474 3.61 4.6148 4.2297 8.4642.9702 6.026-.502 10.4546-4.7552 14.3035-1.5035 1.3605-2.7336 2.7883-2.7336 3.1728 0 .69 2.3695 7.7442 4.1243 12.2785a8561.916 8561.916 0 012.0986 5.4299c.6576 1.703 1.0665 3.2256.9087 3.3834-.1579.1578-4.3516.287-9.3194.287-8.9214 0-9.038-.013-9.4863-1.0501-.6751-1.5623-7.4597-26.532-7.4597-27.4546 0-.6608.5828-.8235 3.4706-.9693 4.3731-.2209 5.863-1.3272 5.863-4.3536 0-3.5107-2.0431-4.6313-7.9336-4.351l-3.0334.1443-.1219 19.017-.1219 19.0172h-16.7676c-12.831 0-16.8563-.1359-17.1452-.5789-.2076-.3183-1.2273-2.996-2.2659-5.9501l-1.8883-5.3713-7.729-.1276c-5.822-.0962-7.8484.019-8.213.4667-.2663.3268-1.1608 2.5893-1.9879 5.0277-2.4294 7.1626-1.2634 6.5335-12.1108 6.5335-5.2591 0-9.4123-.1893-9.5648-.436zm35.682-25.0701c0-.4482-3.2928-10.5593-3.6013-11.0585-.1444-.2336-1.0517 1.8603-2.016 4.653-.9646 2.7928-1.9027 5.4452-2.0849 5.8944-.3002.7402.0448.8167 3.6855.8167 2.2092 0 4.0167-.1375 4.0167-.3056zm73.5796 25.1951c-.1712-.1711-.3112-11.699-.3112-25.6174 0-22.6454.0776-25.336.7382-25.5895.406-.1558 9.3943-.2833 19.9739-.2833 14.3388 0 19.3782.1426 19.7956.56.6358.6359.794 11.8828.1808 12.8482-.2682.4221-3.2681.6078-11.3098.7l-10.9449.1255v4.6668l9.217.1266 9.2168.1265v13.4942l-9.2169.1265-9.2169.1266v4.6667l10.9449.1255c8.0417.0922 11.0416.278 11.3098.7.4282.6742.5109 11.5887.096 12.67-.2522.6572-2.471.7382-20.2227.7382-10.9667 0-20.0795-.14-20.2506-.3111zM.311 51.9902C.14 51.8191 0 40.2688 0 26.323V.9667h19.1024c17.787 0 19.1194.0563 19.3505.8167.186.612.0808 8.5719-.1633 12.3577-.012.1874-4.4846.3974-9.939.4667l-9.9168.126-.141 2.45-.1411 2.45h8.1413c6.9933 0 8.1813.1042 8.4246.7383.1558.406.2833 3.226.2833 6.2668 0 7.4628.4741 7.099-9.0525 6.945l-7.5146-.1216-.1264 9.4195-.1263 9.4195H9.4017c-4.8287 0-8.9195-.14-9.0906-.311zM41.5343 26.634V.9667l16.4505.005c19.5475.006 20.9303.2505 25.264 4.466 4.4575 4.3358 5.5696 13.1615 2.3568 18.7022-.6185 1.0666-2.2948 2.9658-3.725 4.2203l-2.6004 2.281 1.843 5.3465c2.3073 6.693 3.6862 10.396 4.8054 12.9046 1.5937 3.5718 1.9961 3.409-8.4286 3.409-8.4531 0-9.3248-.0745-9.5513-.8167-.137-.4492-1.2876-4.5968-2.5568-9.2169-1.2692-4.6201-2.956-10.693-3.7483-13.4955-.7924-2.8023-1.3575-5.1784-1.2558-5.2801.1017-.1017 1.5436-.234 3.2042-.294 4.8116-.1738 7.014-2.2514 6.1394-5.7916-.621-2.5136-2.6381-3.4288-7.1965-3.2651l-3.5001.1256-.122 19.0172-.1218 19.0171H41.5343V26.634zm108.1138 25.3562c-.171-.1711-.311-11.7214-.311-25.6673V.9667h23.7581l.2962 1.75c.163.9626.5801 3.3252.9271 5.2502.347 1.925.9677 5.3902 1.3794 7.7002.657 3.6863 1.0638 5.8003 1.9087 9.917.261 1.2722 1.131 1.402 1.131.1685 0-.4847.5212-3.5823 1.1581-6.8835.637-3.3011 1.6532-8.6271 2.2583-11.8355L183.2543 1.2h23.7175v50.868H192.038l-.2334-15.4004-.2333-15.4003-1.8002 8.8668c-.99 4.8768-2.3354 11.597-2.9896 14.9337-.6542 3.3368-1.3967 6.3345-1.65 6.6617-.346.447-2.2637.563-7.7153.4667l-7.2548-.1282-.5565-2.3334c-.3061-1.2833-1.5423-7.4785-2.7472-13.767-3.2302-16.8596-3.3163-16.8647-3.1205-.1853.0917 7.805.0351 14.7146-.1255 15.355l-.2922 1.164h-6.6802c-3.674 0-6.8202-.14-6.9913-.311z"/></svg>