<svg xml:space="preserve" width="427.382" height="233.982" xmlns="http://www.w3.org/2000/svg"><path d="m95.025 188.543.325 1.539h-.013l14.987 8.84 3.788 2.201-2.072-5.335c12.362 3.645 22.433 3.85 29.127.694 0 0-.01 0-.01.006-11.654 3.444-40.554-6.294-46.132-7.945m-45.78-69.782-12.822 9.754 9.2-20.24v-.017c1.463 3.104 2.696 6.65 3.633 10.503zm59.52-18.18-40.048 9.767v-.043l.013.043 78.22-33.847-64.465 7.897 34.506-25.205-36.977 14.435L85.6 62.424 59.148 81.476l-.224-.403L96.425 0l-60.98 72.178-.382-39.354-22.376 52.601-1.16-15.506L.505 110.266l.017-.01v.01s1.487-1.098 3.483-1.7c.163-.044.323-.084.484-.13.023 0 .041-.016.066-.016.16-.035.322-.072.482-.1.023 0 .046-.016.076-.016.167-.03.321-.05.506-.063v-.018c.17-.015.344-.022.506-.036h.104c.16-.015.341-.015.517 0 .011 0 .025 0 .064.014.15 0 .299.007.46.04a.218.218 0 0 0 .087.012c.179.022.336.05.495.095a.34.34 0 0 1 .111.022c.165.044.34.09.524.152 3.77 1.365 6.976 0 6.976 0s3.554 2.281 3.554 4.193h-.006v.008s-4.676.273-4.676-1.797c0 0-5.975-2.12-14.334.977l17.635 7.584c-.011-.081-.945-3.364.075-4.506.322-.395.893-.534 1.772-.234.324.116.56.088.702-.055 1.372-1.412-5.28-13.694-5.28-13.694s-5.97-.58-11.136 4.825c-.344.358-.701.743-1.029 1.163v-.017.017c.526-.921 2.198-3.59 4.999-5.902 1.675-1.405 3.77-2.667 6.261-3.377.687-1.64-.18-.573 1.228-1.437.012 0 .012-.014.012-.014.663-4.33 3.115-15.482 11.571-25.02a36.922 36.922 0 0 1 1.775-1.88s-2.172 4.077-2.172 6.91c.065-.073 2.208-3.282 5.161-6.22v-.012s-.036.048-.076.128c-.554 1.176-4.583 9.783-4.163 12.295.014.023.025.038.025.06l8.145-7.467-.032.023c-.237.324-7.654 10.352-8.384 13.79v.024l12.338-8.816-.012.015c-.04.071-1.552 2.18-2.187 3.338-.455.83-.517 1.11-.517 1.195l.016.067 6.644-2.85s-.288.345-.748.85l-2.477 2.513-.608.644-4.491 4.543-.09.104-3.419 3.475-2.192 2.234s-1.791 1.868-2.01 2.835c-.212.953.8 1.54.8 1.54h-.014a4.948 4.948 0 0 1 2.087 2.244c.237.569.374 1.191.374 1.859a4.589 4.589 0 0 1-1.434 3.348 4.944 4.944 0 0 1-3.478 1.401 4.946 4.946 0 0 1-3.2-1.168c.149.202 2.58 3.258 7.036.882l5.51-4.017.24-.188 5.697-4.165c1.347 1.587 2.614 3.499 3.766 5.665-3.386 3.217-9.163 8.796-14.925 14.896-3.432 3.627-6.863 7.463-9.79 11.085l2.057-9.657.173-.797s-.012 0-.012.015c-.023.007-.037.007-.05.021 0 .01-.024.024-.024.024-.024.011-.048.011-.06.044a.029.029 0 0 0-.027.03c-.024.013-.057.028-.076.041-.01.008-.023.041-.057.047-.015.011-.052.044-.08.05-.017.03-.034.042-.07.064a.15.15 0 0 1-.085.059c-.029.031-.053.062-.086.08-.03.022-.065.063-.098.07a.295.295 0 0 1-.091.091c-.049.031-.076.069-.125.098a.96.96 0 0 0-.089.094c-.046.039-.099.066-.134.118-.05.022-.076.058-.125.081a.638.638 0 0 1-.145.139c-.03.035-.085.073-.115.115a.86.86 0 0 0-.162.154c-.047.039-.074.076-.132.104a.75.75 0 0 1-.178.186.495.495 0 0 0-.108.103c-.037.034-.077.072-.122.105 0 .015-.006.015-.006.015-.064.058-.134.134-.197.202a.638.638 0 0 0-.135.143c-.076.058-.134.126-.2.186a2.683 2.683 0 0 1-.16.16c-.04.067-.099.116-.126.155-.023.018-.052.05-.076.074 0 .008-.023.024-.044.048-.04.04-.076.075-.116.122-.06.063-.109.113-.162.177-.01.024-.022.04-.046.046-.021.023-.038.035-.061.058a.488.488 0 0 1-.111.127 1.13 1.13 0 0 1-.214.236c-.052.08-.122.138-.174.218-.061.082-.148.167-.21.242-.065.081-.128.145-.187.225-.086.09-.148.183-.233.274-.053.07-.124.146-.19.233-.07.097-.144.183-.234.299-.061.057-.113.147-.183.22-.08.12-.168.223-.252.339-.07.085-.122.143-.162.222-.109.137-.218.275-.323.414-.034.054-.09.118-.12.17-.15.208-.309.418-.455.636l-.018.023c-.144.211-.295.418-.432.63a2.118 2.118 0 0 1-.124.2c-.1.16-.214.321-.323.492-.059.08-.098.16-.164.242-.095.16-.193.304-.298.465l-.162.274c-.087.162-.194.326-.298.486-.046.098-.11.193-.16.296-.1.162-.188.332-.296.494-.052.085-.114.201-.17.3-.1.189-.197.35-.295.523-.046.098-.105.206-.154.316a60.954 60.954 0 0 0-1.349 2.633v.015l-2.267.382a41.47 41.47 0 0 1 1.391-3.234l-3.702 5.207 3.702-.362c-3.167 7.27-5.487 16.78-5.487 30.33l3.012-1.906c2.654 15.12 15.12 21.767 15.12 21.767l-.017-.095c6.861 4.495 15.222 7.638 24.436 8.884 1.278.162 2.314.256 2.55.28.004 0 .004 0 .004-.007.168.02.319.05.48.05a62.56 62.56 0 0 0 14.47-.42 7.748 7.748 0 0 0-.023.532c0 2.995 1.663 5.46 3.783 5.663-4.354 7.406-7.884 17.248-7.895 17.294-.167.451-.512 1.289-.863 1.54-1.076.241-1.165.296-2.349.665l.017-.014c-.397-.39-3.84-1.034-7.341.282.006.016.006.016.029.034-1.988.87-3.915 2.458-5.254 5.09 1.424-1.148 4.083-3.02 6.241-2.76-2.56 1.46-6.982 4.245-7.489 8.255 0 0 15.367-10.78 22.946-8.792 0 0-1.106 1.253 1.503 5.91l1.19-4.33c1.366-4.205-3.898-4.824-6.109-4.912.013-.033.013-.048.013-.052 0 0 .243-.675.675-1.789 1.3-3.366 4.34-10.807 7.66-16.118.066-.113.106-.232.14-.341l-.622-.857c.006 0 .45-.484.692-.84.437-.697 1.047-1.88 1.06-3.444 0-1.227-.301-2.776-1.177-4.699l1.97-.912c.11.25.212.484.317.708.029.086.059.162.087.228.056.16.12.321.177.483.028.073.06.16.087.242.06.176.105.336.162.497.01.05.046.116.057.174l11.244-3.398-2.493-2.053h-.018l-.106-.111-.06-.044-42.538-38.741c.01 0 .023.02.023.02l-.012-.02c11.826 5.752 25.624 12.439 49.023 23.282 23.053 10.625 37.65 16.815 45.18 19.901.066.041.132.066.184.09h.013c1.095.448 2.032.826 2.826 1.147 1.614.633 3.12 1.217 3.203 1.253.125-.071.282-.111.41-.179L55.614 137.3Zm-82.05 6.571a2.66 2.66 0 0 1-1.095.213c-1.185 0-2.3-.72-2.787-1.896-.04-.096-.096-.21-.113-.332l-.887.294c.744 2.166 2.982 3.35 4.998 2.652a3.62 3.62 0 0 0 1.312-.798c1.11-1.043 1.561-2.74 1.007-4.352l-2.025.691c.126.3.211.62.211.966a2 2 0 0 1-.165.83l.922.564c-.163.243-.36.483-.594.684a2.487 2.487 0 0 1-.784.484m12.898 101.331c3.386-3.64 7.362-7.75 9.735-9.687a48.784 48.784 0 0 1-2.868-.36c-2.474 2.258-5.63 5.555-8.462 8.577-3.587 3.87-6.54 7.25-6.54 7.266-.046.03-.063.088-.112.13-2.343.645-6.314 1.739-8.963 2.46-3.921 1.087-7.44.819-7.44 3.384 0 0-4.057 2.177-3.107 5.422 0 0 8.14-6.505 15.105-7.607 0 0-4.252 2.77-3.868 6.52 0 0 5.735-8.581 12.438-3.376 0 0-2.989-4.056-1.746-6.288a336.306 336.306 0 0 1 5.828-6.44" style="fill:#dc0d15;fill-opacity:1;fill-rule:nonzero;stroke:none;stroke-width:1.20699"/><path d="m21.826 105.43.893-.293c.018.121.075.236.115.331a3.025 3.025 0 0 0 2.787 1.898c.374 0 .743-.057 1.094-.213a2.947 2.947 0 0 0 1.378-1.17l-.921-.552a2.05 2.05 0 0 0 .164-.84 2.51 2.51 0 0 0-.21-.967l2.024-.69c.739 2.155-.3 4.46-2.325 5.157-2.021.69-4.262-.483-5-2.66m22.896 1.004c-1.151-2.167-2.419-4.078-3.766-5.664l-11.448 8.383c-4.619 2.44-7.06-.901-7.06-.901a4.955 4.955 0 0 0 3.226 1.174c2.716 0 4.899-2.142 4.912-4.75a4.54 4.54 0 0 0-.385-1.845 4.833 4.833 0 0 0-2.086-2.252l.023-.005s-1.011-.59-.801-1.541c.22-.967 2.01-2.834 2.01-2.834l-.011.006 5.624-5.716.088-.104 5.1-5.188 2.476-2.513c.46-.504.738-.835.738-.835l-6.65 2.836s-.127-.072.518-1.26c.645-1.181 2.2-3.355 2.2-3.355l-12.352 8.816c.714-3.46 8.43-13.821 8.43-13.821l-8.146 7.457c-.55-2.6 4.214-12.476 4.214-12.476-2.998 2.974-5.16 6.236-5.16 6.236 0-2.85 2.162-6.928 2.162-6.928-9.898 9.901-12.647 22.292-13.336 26.9-1.436.897-.553-.195-1.24 1.452-6.643 1.877-10.414 7.803-11.273 9.278 5.396-6.652 12.178-5.987 12.178-5.987s8.102 14.972 4.577 13.764c-3.553-1.232-1.848 4.725-1.848 4.725L11 116.627c1.095 2.165 3.25 7.261 2.011 12.564-1.365 2.072-2.717 4.6-3.914 7.716l2.268-.38c.443-.95.887-1.815 1.323-2.644.064-.106.134-.21.18-.314.091-.175.19-.343.294-.516l.172-.315c.099-.162.177-.323.282-.483.063-.112.128-.208.174-.306.104-.161.19-.325.298-.475.053-.101.105-.187.162-.268.097-.16.202-.322.298-.478.047-.086.091-.168.163-.247.09-.162.206-.323.322-.483.046-.076.076-.147.126-.208.137-.213.288-.42.432-.621 0-.01.018-.025.018-.032.146-.22.294-.419.435-.623.049-.05.095-.118.138-.176.105-.147.203-.276.314-.422a1.3 1.3 0 0 1 .172-.208c.074-.116.16-.233.247-.354.075-.072.126-.143.178-.22.081-.103.162-.2.243-.299.063-.07.139-.143.19-.223.086-.099.15-.185.224-.275.07-.07.122-.146.183-.217a4.12 4.12 0 0 1 .225-.251c.052-.073.122-.14.172-.208.076-.092.151-.16.202-.241.071-.057.123-.14.186-.197.069-.071.131-.138.208-.211.051-.076.102-.116.159-.183.076-.072.133-.135.201-.216a1.07 1.07 0 0 0 .16-.172c.054-.06.125-.127.2-.185.039-.046.086-.094.136-.144.062-.068.132-.144.197-.201.052-.035.081-.087.127-.115.109-.11.195-.199.287-.294.057-.03.086-.067.133-.104a.789.789 0 0 1 .162-.155c.029-.04.085-.08.113-.115a.637.637 0 0 0 .145-.138c.05-.024.076-.06.126-.082.035-.05.088-.08.133-.117a.752.752 0 0 1 .091-.094c.048-.03.075-.068.123-.098a.267.267 0 0 0 .092-.093c.034-.005.069-.047.098-.069.033-.018.056-.048.087-.08.045-.013.063-.036.084-.058.035-.023.053-.035.07-.063.029-.008.064-.04.08-.052.033-.006.047-.037.058-.046.018-.014.052-.029.074-.041a.03.03 0 0 1 .03-.031c.01-.032.033-.032.059-.044 0 0 .022-.014.022-.023.015-.014.028-.014.05-.023 0-.014.013-.014.013-.014l-.174.796-2.056 9.657c7.796-9.657 19.3-20.857 24.715-25.98m1.457 91.95c2.031.323 3.886.493 3.886.493l.092-1.075s-1.815-.16-3.8-.482zm25.706-4.667c.875 1.923 1.176 3.471 1.176 4.699-.012 1.563-.622 2.747-1.06 3.445-.241.355-.684.84-.691.84l1.278 1.752c.14-.088 2.637-1.974 2.637-6.037 0-1.581-.378-3.452-1.375-5.61zm69.349 2.747s-28.807-10.807-100.464-45.674l42.705 38.897h.02c3.829-1.59 6.517-2.717 11.842.395l-.311-1.54c5.569 1.652 34.577 11.437 46.208 7.922m-95.609-88.191-9.2 20.24 12.82-9.754c-.926-3.851-2.176-7.384-3.62-10.486m-31.289 2.653c0 2.07 4.676 1.796 4.676 1.796 0-1.902-3.547-4.192-3.547-4.192s-3.207 1.355-6.996 0c-1.52-.55-3.109-.37-4.463.044C2.209 109.772 0 111.917 0 111.917c8.36-3.112 14.335-.99 14.335-.99" style="fill:#1d1d1b;fill-opacity:1;fill-rule:nonzero;stroke:none;stroke-width:1.20699"/><path d="m342.094 126.333.119-.112 4.377-4.467.646-.677h-18.668v32.245h13.635l.12-.108 4.267-4.468.636-.659h-13.13v-10.012h4.038l.109-.12 4.43-4.452.663-.676h-9.24v-6.494zm-33.976-1.815-.173.125v17.178c0 2.598-.277 4.42-.813 5.435-.478.953-1.318 1.398-2.58 1.398-.92 0-1.918-.35-2.995-1.074l-.35-.23-.202.352-2.348 4.053-.184.338.32.2c1.781 1.06 3.716 1.613 5.76 1.613 2.737 0 4.955-.998 6.615-2.93.846-.982 1.445-2.197 1.815-3.61.34-1.227.523-3.041.523-5.529v-21.112l-.634.446zm67.998-3.316-11.572 11.867v-12.344l-.618.446-4.746 3.333-.164.12v29.066l.627-.428 4.743-3.346.158-.123v-9.72l.563-.555 11.057 13.665.216.278.306-.2 4.072-2.75.35-.244-.274-.34-11.776-14.187 13.968-13.986.662-.677h-7.444zm-93.888 24.154c-2.2 2.194-4.915 3.298-8.095 3.298-2.902 0-5.526-1.09-7.75-3.255-2.257-2.147-3.396-4.928-3.396-8.288 0-3.178 1.104-5.899 3.27-8.064 2.167-2.197 4.87-3.317 8.016-3.317 3.166 0 5.848 1.12 7.986 3.317 2.164 2.182 3.25 4.93 3.25 8.153 0 3.178-1.102 5.928-3.281 8.156m-7.893-24.863c-4.622 0-8.642 1.648-11.927 4.886-3.318 3.24-4.996 7.17-4.996 11.682 0 5.129 1.843 9.352 5.472 12.53 3.281 2.858 7.058 4.315 11.204 4.315 4.667 0 8.723-1.644 12.023-4.867 3.305-3.209 4.974-7.17 4.974-11.79 0-4.579-1.657-8.571-4.94-11.827-3.27-3.27-7.234-4.929-11.81-4.929m116.894 5.84h7.225v27.357l.618-.428 4.746-3.346.17-.123v-23.46h7.216v-5.256h-19.975zm-268.808-.603c2.04 0 4.054.584 6.017 1.736l.34.199.184-.337 2.305-3.976.2-.336-.339-.202c-2.69-1.548-5.516-2.333-8.374-2.333-5.28 0-9.636 1.978-12.953 5.894-2.7 3.21-4.073 6.895-4.073 10.98 0 4.543 1.65 8.508 4.855 11.73 3.253 3.194 7.214 4.821 11.81 4.821 3.033 0 5.969-.8 8.735-2.363l.197-.125v-.32l-.042-.091-2.321-4.01-.202-.35-.35.23c-.646.414-1.278.75-1.86.995-1.124.524-2.5.783-4.118.783-3.097 0-5.752-1.105-7.905-3.287-2.136-2.176-3.225-4.897-3.225-8.076 0-3.221 1.089-5.988 3.225-8.197 2.137-2.245 4.79-3.365 7.894-3.365m36.28 19.534a10.25 10.25 0 0 1-3.702 2.162c-1.346.446-3.099.661-5.169.661h-1.752v-21.754h1.752c3.914 0 6.925.935 8.9 2.762 2.227 2.074 3.333 4.788 3.333 8.105 0 3.301-1.115 6.003-3.363 8.064m-1.548-23.22c-1.871-.64-4.44-.967-7.617-.967h-6.984v32.245h6.909c3.208 0 5.722-.291 7.508-.89 1.89-.598 3.743-1.673 5.481-3.192 3.438-3.059 5.206-7.094 5.206-12.04 0-4.898-1.692-8.935-5.003-11.959-1.647-1.491-3.49-2.564-5.5-3.197m76.68 13.823v-9.999h1.701c4.366 0 6.558 1.616 6.558 4.837 0 3.44-2.256 5.162-6.741 5.162zm6.168 3.916c1.907-.54 3.492-1.569 4.702-3.09 1.333-1.658 1.996-3.685 1.996-5.988 0-2.947-1.076-5.375-3.195-7.182-1.9-1.613-5.021-2.446-9.259-2.446h-5.94v32.613l.596-.428 4.761-3.346.17-.123v-9.338h.264l8.87 12.717.216.32.322-.23 3.813-2.751.32-.23-.228-.318zm-35.496-3.916h-1.518v-10h1.703c4.357 0 6.559 1.617 6.559 4.838 0 3.44-2.259 5.162-6.744 5.162m4.809-14.222c-1.37-.366-3.408-.568-6.069-.568h-5.77v32.613l.609-.428 4.747-3.346.171-.123v-9.228h1.809c3.35 0 6.07-.892 8.06-2.629 2.017-1.764 3.03-4.159 3.03-7.139 0-2.793-.957-5.127-2.827-6.97-1.077-1.059-2.334-1.796-3.76-2.182" style="fill:#1d1d1b;fill-opacity:1;fill-rule:nonzero;stroke:none;stroke-width:1.20699"/><path d="M422.227 123.7h-1.731v2.284h1.73c.557 0 1.168-.449 1.168-1.114 0-.72-.61-1.17-1.167-1.17m1.063 5.66-1.676-2.55h-1.118v2.55h-.903v-6.459h2.634c1.086 0 2.1.768 2.1 1.969 0 1.433-1.28 1.912-1.648 1.912l1.729 2.578zm-1.541-8.031a4.756 4.756 0 0 0-4.793 4.79 4.786 4.786 0 0 0 4.793 4.785 4.779 4.779 0 0 0 4.782-4.785 4.75 4.75 0 0 0-4.782-4.79m0 10.427a5.645 5.645 0 0 1-5.64-5.637 5.625 5.625 0 0 1 5.64-5.638c3.137 0 5.633 2.5 5.633 5.638a5.623 5.623 0 0 1-5.633 5.637" style="fill:#1d1d1b;fill-opacity:1;fill-rule:nonzero;stroke:none;stroke-width:1.20699"/></svg>