<?xml version="1.0" standalone="no"?>
<!DOCTYPE svg PUBLIC "-//W3C//DTD SVG 20010904//EN"
 "http://www.w3.org/TR/2001/REC-SVG-20010904/DTD/svg10.dtd">
<svg version="1.0" xmlns="http://www.w3.org/2000/svg"
 width="500.000000pt" height="500.000000pt" viewBox="0 0 500.000000 500.000000"
 preserveAspectRatio="xMidYMid meet">

<g transform="translate(0.000000,500.000000) scale(0.100000,-0.100000)"
fill="#000000" stroke="none">
<path d="M2275 4991 c-184 -22 -316 -47 -470 -91 -474 -134 -932 -437 -1240
-820 -140 -173 -207 -278 -309 -485 -232 -471 -308 -992 -220 -1510 111 -661
481 -1243 1041 -1640 157 -112 427 -248 613 -309 161 -53 243 -73 455 -111
149 -26 537 -26 705 0 338 52 653 163 932 330 449 268 812 684 1018 1165 78
183 146 429 176 641 22 151 25 508 6 644 -55 388 -192 764 -382 1049 -91 137
-95 142 -193 261 -67 82 -276 283 -362 349 -166 127 -340 233 -492 302 -43 19
-87 39 -98 44 -129 61 -430 142 -610 165 -27 4 -61 9 -75 11 -48 10 -426 13
-495 5z m851 -1348 c-4 -43 -9 -97 -13 -120 l-5 -43 371 0 371 0 -5 -22 c-2
-13 -21 -148 -40 -301 l-36 -278 35 -652 c20 -359 37 -677 38 -707 l3 -54 -40
2 c-22 1 -258 13 -525 27 -267 13 -511 27 -542 30 l-58 5 -2 -163 -3 -162 -65
-12 c-153 -28 -657 -123 -677 -128 l-23 -5 0 185 c0 102 -3 185 -7 185 -5 0
-162 -20 -351 -46 -189 -25 -346 -43 -350 -40 -5 6 2 199 44 1131 l17 360 -32
297 c-17 163 -31 308 -31 322 l0 26 355 0 355 0 0 120 0 120 611 0 611 0 -6
-77z"/>
<path d="M2030 2404 l0 -1197 38 7 c20 3 138 25 262 49 l225 43 3 442 2 442
165 0 165 0 0 78 c0 42 3 155 7 249 l6 173 -171 2 c-95 2 -172 6 -172 11 0 4
0 90 0 192 l0 185 195 0 c194 0 195 0 199 23 5 22 46 461 46 485 0 9 -104 12
-485 12 l-485 0 0 -1196z"/>
</g>
</svg>
