<?xml version="1.0" encoding="UTF-8" standalone="no"?>
<svg
   xmlns:dc="http://purl.org/dc/elements/1.1/"
   xmlns:cc="http://creativecommons.org/ns#"
   xmlns:rdf="http://www.w3.org/1999/02/22-rdf-syntax-ns#"
   xmlns:svg="http://www.w3.org/2000/svg"
   xmlns="http://www.w3.org/2000/svg"
   width="262.46884mm"
   height="184.25984mm"
   viewBox="0 0 262.46884 184.25984"
   version="1.1"
   id="svg8">
  <defs
     id="defs2" />
  <metadata
     id="metadata5">
    <rdf:RDF>
      <cc:Work
         rdf:about="">
        <dc:format>image/svg+xml</dc:format>
        <dc:type
           rdf:resource="http://purl.org/dc/dcmitype/StillImage" />
        <dc:title></dc:title>
      </cc:Work>
    </rdf:RDF>
  </metadata>
  <rect
     y="166.66023"
     x="8.0543613"
     height="16.644989"
     width="2.9703877"
     id="rect4561"
     style="opacity:1;fill:#000000;fill-opacity:1;stroke:#000000;stroke-width:0;stroke-miterlimit:5;stroke-dasharray:none;stroke-opacity:0" />
  <rect
     y="166.66022"
     x="0.032935418"
     height="16.644989"
     width="2.9703879"
     id="rect4561-9"
     style="opacity:1;fill:#000000;fill-opacity:1;stroke:#000000;stroke-width:0;stroke-miterlimit:5;stroke-dasharray:none;stroke-opacity:0" />
  <rect
     ry="0"
     y="173.23792"
     x="0.052850045"
     height="2.7313726"
     width="10.920411"
     id="rect4614"
     style="opacity:1;fill:#000000;fill-opacity:1;stroke:#000000;stroke-width:0;stroke-linejoin:miter;stroke-miterlimit:5;stroke-dasharray:none;stroke-opacity:0" />
  <path
     id="path21-0"
     d="m 40.334568,184.25833 -3.546069,-8.98713 -5.198873,8.19138 h -3.259413 l 7.260772,-11.72477 -0.815153,-2.31725 h -2.827173 v -2.76114 h 4.839566 l 5.558733,14.13533 2.443897,-0.79615 0.814414,2.73828 z"
     style="fill:#000000;stroke-width:0.09184805" />
  <rect
     ry="0"
     y="166.68407"
     x="63.659161"
     height="16.615635"
     width="2.9234052"
     id="rect4633"
     style="opacity:1;fill:#000000;fill-opacity:1;stroke:#000000;stroke-width:0;stroke-linejoin:miter;stroke-miterlimit:5;stroke-dasharray:none;stroke-opacity:0" />
  <rect
     ry="0"
     y="180.60968"
     x="63.840405"
     height="2.6900318"
     width="10.982424"
     id="rect4614-3"
     style="opacity:1;fill:#000000;fill-opacity:1;stroke:#000000;stroke-width:0;stroke-linejoin:miter;stroke-miterlimit:5;stroke-dasharray:none;stroke-opacity:0" />
  <rect
     ry="0"
     y="166.68346"
     x="94.100655"
     height="16.639406"
     width="2.9745624"
     id="rect4633-6"
     style="opacity:1;fill:#000000;fill-opacity:1;stroke:#000000;stroke-width:0;stroke-linejoin:miter;stroke-miterlimit:5;stroke-dasharray:none;stroke-opacity:0" />
  <rect
     ry="0"
     y="173.30746"
     x="94.110794"
     height="2.690032"
     width="7.8081179"
     id="rect4614-3-1"
     style="opacity:1;fill:#000000;fill-opacity:1;stroke:#000000;stroke-width:0;stroke-linejoin:miter;stroke-miterlimit:5;stroke-dasharray:none;stroke-opacity:0" />
  <rect
     ry="0"
     y="166.68379"
     x="94.128502"
     height="2.7386076"
     width="8.9354315"
     id="rect4614-2"
     style="opacity:1;fill:#000000;fill-opacity:1;stroke:#000000;stroke-width:0;stroke-linejoin:miter;stroke-miterlimit:5;stroke-dasharray:none;stroke-opacity:0" />
  <rect
     ry="0"
     y="166.68347"
     x="201.79234"
     height="16.639406"
     width="2.9745626"
     id="rect4633-6-5"
     style="opacity:1;fill:#000000;fill-opacity:1;stroke:#000000;stroke-width:0;stroke-linejoin:miter;stroke-miterlimit:5;stroke-dasharray:none;stroke-opacity:0" />
  <rect
     ry="0"
     y="173.30746"
     x="201.80247"
     height="2.690032"
     width="7.8081183"
     id="rect4614-3-1-5"
     style="opacity:1;fill:#000000;fill-opacity:1;stroke:#000000;stroke-width:0;stroke-linejoin:miter;stroke-miterlimit:5;stroke-dasharray:none;stroke-opacity:0" />
  <rect
     ry="0"
     y="166.68381"
     x="201.82019"
     height="2.7386076"
     width="8.9354315"
     id="rect4614-2-0"
     style="opacity:1;fill:#000000;fill-opacity:1;stroke:#000000;stroke-width:0;stroke-linejoin:miter;stroke-miterlimit:5;stroke-dasharray:none;stroke-opacity:0" />
  <rect
     ry="0"
     y="166.68405"
     x="140.9073"
     height="16.615635"
     width="2.9234052"
     id="rect4633-1"
     style="opacity:1;fill:#000000;fill-opacity:1;stroke:#000000;stroke-width:0;stroke-linejoin:miter;stroke-miterlimit:5;stroke-dasharray:none;stroke-opacity:0" />
  <rect
     ry="0"
     y="180.60968"
     x="141.08855"
     height="2.6900318"
     width="10.982424"
     id="rect4614-3-7"
     style="opacity:1;fill:#000000;fill-opacity:1;stroke:#000000;stroke-width:0;stroke-linejoin:miter;stroke-miterlimit:5;stroke-dasharray:none;stroke-opacity:0" />
  <rect
     y="173.15402"
     x="120.3407"
     height="3.1342747"
     width="7.8167086"
     id="rect4752"
     style="opacity:1;fill:#000000;fill-opacity:1;stroke:#000000;stroke-width:0;stroke-linejoin:miter;stroke-miterlimit:5;stroke-dasharray:none;stroke-opacity:0" />
  <g
     transform="matrix(0.01460581,0,0,0.01460581,242.85028,166.49019)"
     id="g4768">
    <circle
       style="fill:none;stroke:#000000;stroke-width:20"
       cx="100"
       cy="100"
       r="88.5"
       id="circle4754" />
    <path
       d="m 94.6,92 c 5.5,0 9.5,-1.1 11.9,-3.2 2.4,-2 3.7,-5.4 3.7,-10.2 0,-4.7 -1.3,-8 -3.7,-10.1 -2.4,-2 -6.4,-3 -11.9,-3 H 83.4 V 92 h 11.2 m -11.2,18.3 v 39 H 56.8 V 46.2 h 40.6 c 13.6,0 23.5,2.3 29.8,6.9 6.4,4.5 9.5,11.7 9.5,21.6 0,6.8 -1.6,12.4 -4.9,16.8 -3.3,4.3 -8.2,7.6 -14.9,9.6 3.7,0.9 6.9,2.8 9.8,5.7 2.9,2.9 5.8,7.3 8.7,13.3 l 14.5,29.2 H 121.6 L 109,123.7 c -2.5,-5.1 -5.1,-8.7 -7.7,-10.5 -2.6,-1.9 -6.1,-2.9 -10.4,-2.9 h -7.5"
       id="path4756" />
  </g>
  <rect
     y="166.68373"
     x="174.85963"
     height="16.663858"
     width="2.9031441"
     id="rect4770"
     style="opacity:1;fill:#000000;fill-opacity:1;stroke:#000000;stroke-width:0;stroke-linejoin:miter;stroke-miterlimit:5;stroke-dasharray:none;stroke-opacity:0" />
  <rect
     y="166.68367"
     x="229.85774"
     height="2.7150798"
     width="10.180315"
     id="rect4772"
     style="opacity:1;fill:#000000;fill-opacity:1;stroke:#000000;stroke-width:0;stroke-linejoin:miter;stroke-miterlimit:5;stroke-dasharray:none;stroke-opacity:0" />
  <rect
     y="169.39874"
     x="229.85774"
     height="13.923603"
     width="2.9260402"
     id="rect4774"
     style="opacity:1;fill:#000000;fill-opacity:1;stroke:#000000;stroke-width:0;stroke-linejoin:miter;stroke-miterlimit:5;stroke-dasharray:none;stroke-opacity:0" />
  <rect
     y="180.63113"
     x="232.78377"
     height="2.6912198"
     width="7.5581388"
     id="rect4778"
     style="opacity:1;fill:#000000;fill-opacity:1;stroke:#000000;stroke-width:0;stroke-linejoin:miter;stroke-miterlimit:5;stroke-dasharray:none;stroke-opacity:0" />
  <rect
     y="173.25897"
     x="232.76718"
     height="2.7388508"
     width="6.3107257"
     id="rect4780"
     style="opacity:1;fill:#000000;fill-opacity:1;stroke:#000000;stroke-width:0;stroke-linejoin:miter;stroke-miterlimit:5;stroke-dasharray:none;stroke-opacity:0" />
  <path
     transform="scale(0.26458333)"
     id="path53"
     d="m 966.52063,658.61531 v -3.56593 l 3.96193,-4.77782 c 2.17907,-2.6278 4.48684,-5.41069 5.12839,-6.1842 5.75106,-6.93396 7.40474,-9.77337 7.77242,-13.34542 0.18948,-1.8408 -0.11224,-2.79647 -1.26911,-4.01968 -0.832,-0.87972 -1.72668,-1.31454 -2.74911,-1.33609 -1.10007,-0.0232 -1.54152,0.25393 -2.06428,1.29586 -0.53116,1.05867 -0.78024,2.41868 -0.78024,4.2602 v 1.48901 h -4.36505 -4.36505 l -0.0872,-0.81408 c -0.048,-0.44774 -0.0619,-1.53056 -0.0309,-2.40625 0.0652,-1.84473 0.38487,-2.98832 1.24882,-4.46717 0.6742,-1.15407 2.27823,-2.72041 3.48194,-3.40013 3.81188,-2.15253 9.9831,-2.21537 14.23534,-0.14494 1.12409,0.54732 1.45554,0.78574 2.38641,1.71661 0.92131,0.92131 1.1771,1.27472 1.73144,2.39223 0.90157,1.81751 1.14103,2.79481 1.2248,4.99873 0.053,1.39488 0.0212,2.06523 -0.13794,2.90936 -0.48355,2.56428 -1.88435,5.49982 -4.48706,9.40314 -1.26712,1.9003 -4.58561,6.26281 -6.46581,8.5 -0.98226,1.16875 -2.34849,2.82812 -3.03607,3.6875 l -1.25014,1.5625 7.70824,0.0322 7.70823,0.0322 v 2.87404 2.87405 h -12.75 -12.75 z"
     style="opacity:1;fill:#000000;fill-opacity:1;stroke:#000000;stroke-width:0;stroke-linejoin:miter;stroke-miterlimit:5;stroke-dasharray:none;stroke-opacity:0" />
  <g
     style="fill:#000000"
     transform="matrix(0.49782274,0,0,0.49782274,37.278734,-4.5281319)"
     id="g72">
    <path
       style="fill:#000000"
       d="m 148.984,10.378 c 28.292,-2.092 60.246,-0.947 92.846,-0.947 29.215,0 67.794,-4.206 88.109,3.79 18.095,7.122 32.394,22.523 29.37,49.265 -1.518,13.418 -10.561,27.648 -15.159,38.844 -15.217,37.058 -32.812,79.412 -47.37,114.636 -22.42,54.242 -73.281,97.021 -149.691,91.9 C 105.66,305.087 72.718,284.618 50.453,261.442 27.049,237.079 9.715,203.733 9.715,159.122 9.715,116.327 27.566,81.436 50.453,56.801 72.858,32.686 105.273,13.61 148.984,10.378 m 174.323,36.001 c 2.555,-26.637 -39.369,-29.095 -38.844,-0.947 h 14.211 c -2.135,-12.303 9.656,-12.044 11.369,-3.79 3.631,17.5 -32.326,31.788 -26.527,53.055 13.622,-0.042 27.428,-0.269 39.791,0.947 1.48,-2.172 1.48,-9.196 0,-11.369 h -24.633 c 7.006,-10.561 23.09,-21.807 24.633,-37.896 M 72.243,73.854 c -17.719,18.101 -31.533,40.191 -34.107,72.003 -4.841,59.829 25.983,97.852 58.74,117.479 33.944,20.338 81.501,23.41 119.373,2.842 34.803,-18.899 56.164,-49.133 62.529,-87.161 7.796,-46.582 -13.714,-89.051 -36.949,-109.9 C 220.669,50.13 189.321,33.98 144.246,38.8 111.955,42.252 88.753,56.987 72.243,73.854"
       id="path59" />
    <path
       style="fill:#000000"
       d="m 118.666,70.064 h 43.581 c 15.314,44.688 33.953,86.053 49.266,130.743 8.193,-1.912 15.589,-4.622 22.737,-7.579 4.533,6.835 5.214,17.524 9.475,24.633 -15.107,7.315 -33.225,11.621 -51.16,16.106 -8.843,-27.16 -20.003,-52.001 -29.37,-78.636 -16.864,22.928 -30.968,48.614 -47.371,72.003 H 83.612 c -0.297,-4.498 3.277,-9.268 5.685,-13.264 18.61,-30.885 40.048,-65.68 58.74,-97.583 -1.638,-7.837 -5.489,-13.46 -7.58,-20.843 h -21.79 v -25.58 z"
       id="path61" />
  </g>
</svg>
