<?xml version="1.0" standalone="no"?>
<!DOCTYPE svg PUBLIC "-//W3C//DTD SVG 20010904//EN"
 "http://www.w3.org/TR/2001/REC-SVG-20010904/DTD/svg10.dtd">
<svg version="1.0" xmlns="http://www.w3.org/2000/svg"
 width="1588.000000pt" height="1443.000000pt" viewBox="0 0 1588.000000 1443.000000"
 preserveAspectRatio="xMidYMid meet">

<g transform="translate(0.000000,1443.000000) scale(0.100000,-0.100000)"
fill="#000000" stroke="none">
<path d="M7965 11678 c-27 -86 -57 -140 -107 -195 -27 -28 -48 -61 -48 -73 0
-12 13 -34 28 -50 18 -17 33 -48 42 -83 11 -49 16 -56 39 -59 22 -3 25 -7 21
-28 -2 -14 -4 -56 -3 -95 1 -38 2 -90 1 -115 0 -25 0 -73 0 -107 1 -68 1 -117
1 -215 -1 -35 0 -83 1 -108 1 -25 -1 -59 -5 -76 -5 -23 -2 -39 10 -58 12 -18
14 -30 8 -39 -14 -17 -23 -211 -12 -262 3 -16 -2 -21 -23 -23 -21 -3 -28 -9
-28 -25 -1 -12 -11 -35 -24 -50 -20 -25 -26 -27 -50 -17 -15 5 -38 10 -52 10
-23 0 -24 -3 -24 -70 l0 -70 35 -14 c39 -17 49 -43 13 -32 -13 4 -32 8 -43 9
-22 3 -108 78 -224 197 l-74 75 8 -108 c4 -59 3 -107 -2 -107 -4 0 -20 -10
-35 -23 -14 -12 -52 -42 -83 -67 -103 -81 -235 -255 -235 -310 0 -24 -8 -40
-29 -59 -20 -18 -44 -64 -77 -148 -26 -68 -46 -125 -43 -127 9 -9 268 63 314
87 38 21 57 25 86 21 26 -4 71 3 142 22 l104 28 12 91 c7 49 15 93 20 98 4 4
16 -1 27 -12 12 -10 36 -27 55 -36 38 -20 100 -64 111 -80 4 -5 8 -47 8 -93 0
-64 -3 -84 -15 -88 -9 -4 -15 -19 -15 -40 0 -30 3 -34 26 -34 23 0 25 -3 22
-42 l-3 -43 -359 -3 c-326 -2 -361 -4 -385 -20 -49 -34 -106 -47 -151 -33 -35
10 -39 15 -34 35 5 23 5 23 -62 18 -37 -2 -74 -10 -81 -18 -7 -7 -22 -16 -33
-19 -11 -4 -20 -15 -20 -26 0 -34 -19 -58 -60 -78 -47 -22 -54 -8 -12 25 27
22 27 22 12 66 l-15 43 -79 0 -78 0 -47 -121 c-93 -237 -107 -284 -92 -294 13
-7 12 -15 -5 -52 -10 -23 -31 -56 -45 -73 -21 -25 -149 -332 -149 -359 0 -4
14 -21 31 -37 41 -38 33 -57 -29 -65 -47 -6 -49 -7 -65 -53 -30 -89 -67 -186
-77 -203 -6 -10 -10 -22 -10 -28 0 -8 290 204 420 307 8 7 83 62 165 124 185
137 184 137 166 148 -11 7 -7 18 23 52 27 33 36 51 34 73 -3 27 1 31 32 37 47
10 72 -4 64 -36 -3 -14 -3 -25 0 -25 4 0 54 36 113 80 l106 80 91 2 c124 3
228 0 376 -9 l124 -8 3 -73 c2 -50 10 -86 24 -114 16 -31 23 -73 31 -172 12
-162 11 -138 3 -224 -6 -52 -4 -80 5 -97 10 -18 10 -31 1 -56 -27 -77 -7 -229
31 -241 9 -3 5 -23 -16 -72 -24 -56 -27 -74 -21 -114 9 -56 9 -76 -1 -257 l-7
-140 -53 -82 c-30 -44 -54 -90 -54 -101 0 -11 -7 -22 -14 -25 -8 -3 -27 -31
-41 -61 -14 -30 -32 -57 -40 -60 -8 -3 -15 -12 -15 -20 0 -7 -7 -16 -14 -19
-26 -10 -126 -170 -133 -211 -5 -30 -14 -43 -39 -58 -18 -11 -55 -53 -83 -96
-28 -42 -59 -88 -68 -102 -9 -14 -77 -116 -151 -227 l-135 -201 7 -56 c6 -48
5 -57 -10 -63 -9 -3 -26 -1 -37 6 -16 10 -22 10 -32 -1 -35 -36 -655 -980
-655 -997 0 -10 -7 -35 -15 -55 -11 -26 -22 -36 -38 -36 -12 0 -30 -12 -40
-25 l-18 -25 125 0 c123 0 126 1 142 25 21 32 34 32 34 0 0 -25 1 -25 85 -25
57 0 85 4 85 11 0 8 14 10 40 6 33 -4 43 -1 54 15 8 11 13 25 10 32 -3 7 19
11 68 12 65 1 75 -2 91 -23 10 -13 29 -23 41 -23 12 0 31 -7 42 -15 15 -11 59
-14 222 -15 139 0 202 3 202 11 0 7 20 9 63 4 34 -3 144 -9 245 -11 151 -4
182 -7 182 -19 0 -8 -4 -15 -9 -15 -5 0 -16 -15 -25 -34 -13 -28 -16 -69 -16
-223 1 -183 1 -190 28 -253 l28 -65 -20 -50 c-16 -40 -20 -71 -19 -160 1 -138
21 -221 73 -299 23 -34 40 -72 41 -90 4 -122 10 -150 54 -271 26 -71 53 -148
60 -170 7 -22 25 -67 38 -100 l26 -60 24 55 c13 30 32 75 40 100 9 25 37 104
62 175 63 176 65 184 65 233 0 28 10 59 30 95 31 56 55 143 73 272 8 50 12
231 12 477 l0 398 125 0 c69 0 154 5 190 11 36 6 75 12 87 14 12 2 27 6 33 10
7 4 25 -2 41 -14 26 -20 40 -21 229 -21 110 0 200 4 200 8 0 14 83 32 97 21 6
-6 39 -11 72 -13 34 -2 64 -6 68 -10 3 -3 46 -6 95 -6 97 0 99 1 115 83 l6 29
-41 -21 c-51 -26 -57 -26 -85 0 -21 19 -21 21 -5 33 10 7 15 16 11 19 -11 11
18 64 41 75 22 10 53 1 67 -21 15 -22 44 0 61 48 36 95 338 1006 338 1016 0 6
-17 -5 -37 -24 -69 -63 -338 -301 -378 -335 -35 -29 -38 -34 -27 -52 7 -12 10
-32 6 -48 -5 -18 -3 -24 4 -17 5 6 12 19 14 29 1 11 16 24 32 29 24 8 32 6 43
-9 18 -25 16 -44 -4 -44 -10 0 -31 -16 -48 -35 -18 -21 -43 -38 -62 -41 -28
-6 -33 -3 -48 29 -9 20 -14 41 -10 46 3 6 0 11 -8 11 -8 0 -43 -26 -78 -58
-78 -70 -107 -96 -228 -201 l-94 -81 -118 0 c-65 0 -141 5 -168 11 -60 13
-111 55 -111 93 0 43 75 256 118 336 l41 75 63 -3 64 -3 13 39 c8 22 11 52 7
66 -7 29 13 36 33 12 14 -17 95 -46 128 -46 26 0 29 10 11 28 -10 10 -10 15 2
23 11 7 -3 8 -45 4 -52 -6 -64 -3 -87 14 -14 12 -31 21 -37 21 -13 0 -15 16
-3 23 4 3 54 -1 112 -9 137 -18 200 -17 95 2 -44 8 -86 16 -93 19 -21 8 -3 25
26 25 21 0 24 2 12 10 -8 5 -27 10 -42 10 -16 0 -28 4 -28 9 0 12 56 31 93 31
23 0 28 4 23 16 -4 9 -1 23 5 30 14 17 -2 19 -19 2 -6 -6 -24 -12 -39 -14 -15
-1 -38 -6 -50 -9 -14 -4 -23 -3 -23 3 0 16 134 216 177 263 44 49 122 89 175
89 35 0 38 -2 48 -39 11 -40 42 -71 92 -90 14 -5 29 -6 34 -1 5 4 33 15 62 25
l52 17 0 58 c0 32 -4 62 -10 65 -18 11 -11 25 13 25 13 0 31 6 41 13 17 12 13
14 -27 14 -25 0 -53 5 -61 12 -8 7 -43 13 -76 14 l-62 2 -42 -48 c-26 -30 -49
-47 -64 -47 -45 0 -136 -40 -174 -77 -20 -20 -63 -74 -94 -119 -31 -46 -60
-81 -64 -79 -4 3 1 31 12 62 30 88 33 191 10 298 -11 50 -16 94 -12 99 5 4 23
-3 42 -17 37 -28 99 -41 149 -32 l34 6 -4 52 c-2 33 -12 64 -27 86 -13 19 -21
38 -19 42 7 11 95 -18 132 -44 20 -14 29 -25 23 -31 -16 -16 -11 -30 5 -16 42
35 -7 101 -114 152 l-64 31 61 31 c79 40 116 74 147 132 44 83 41 86 -78 55
-104 -28 -232 -84 -254 -111 -17 -23 -24 -8 -13 31 24 84 0 177 -68 259 l-28
33 -23 -64 c-13 -35 -27 -69 -32 -74 -4 -6 -13 -42 -20 -80 -10 -61 -10 -75 6
-122 10 -29 16 -56 12 -59 -3 -3 -18 3 -34 14 -46 32 -96 43 -189 42 -108 -1
-176 -11 -181 -26 -7 -22 115 -113 175 -130 l56 -17 -25 -21 c-24 -20 -59 -82
-59 -105 0 -19 16 -12 29 13 13 24 50 46 77 46 18 0 18 0 -21 -63 -22 -35 -35
-47 -48 -43 -13 3 -15 1 -8 -8 6 -7 8 -22 4 -34 -5 -19 -1 -22 23 -22 36 0
121 25 151 45 33 22 38 19 38 -28 0 -42 30 -125 49 -139 5 -3 15 -4 22 -1 11
4 10 10 -3 29 -12 19 -14 39 -10 84 4 52 31 120 47 120 9 0 36 -140 47 -242 6
-57 -27 -196 -70 -290 -29 -67 -55 -92 -43 -43 8 30 -22 95 -34 75 -6 -10 -9
-9 -13 1 -3 9 -11 -1 -21 -23 -18 -42 -22 -123 -6 -133 18 -11 0 -26 -19 -15
-10 5 -21 7 -24 4 -3 -3 -22 -2 -43 2 -28 5 -57 26 -116 82 -75 71 -97 83 -62
33 12 -17 13 -25 5 -30 -7 -5 -3 -15 14 -31 14 -13 25 -27 25 -32 0 -12 -17
-10 -32 5 -29 28 -107 77 -112 69 -3 -4 11 -26 31 -47 20 -22 31 -41 24 -43
-18 -6 -13 -22 8 -22 29 0 35 -18 9 -22 l-23 -3 24 -14 c32 -18 150 -25 185
-11 18 7 33 7 46 0 18 -9 18 -11 -2 -62 -10 -28 -28 -63 -38 -77 -53 -76 -138
-288 -165 -415 -8 -38 -53 -79 -103 -94 -22 -7 -94 -12 -160 -12 l-121 0 -17
35 c-15 33 -15 36 5 68 18 29 21 50 21 136 0 66 -5 111 -14 129 -7 15 -16 47
-20 71 -4 24 -16 56 -26 71 -25 35 -25 50 -1 50 11 0 29 12 40 26 21 26 21 37
21 480 l0 453 225 337 c166 248 225 344 225 365 0 23 7 34 29 47 17 9 35 27
40 39 6 13 15 23 21 23 5 0 10 7 10 15 0 8 16 35 35 61 19 25 35 54 35 65 0
10 11 26 24 34 13 9 111 147 217 307 191 288 192 291 171 307 -29 22 -20 59
17 64 l26 3 -30 13 c-29 12 -29 13 -11 27 11 8 22 14 26 14 3 0 14 14 23 30
10 17 24 30 30 30 27 0 41 20 42 57 0 30 5 40 27 53 23 13 31 13 49 2 11 -7
22 -12 24 -10 19 23 365 551 365 558 0 5 -15 21 -34 37 -19 15 -41 41 -49 56
l-15 28 -225 -1 c-177 0 -232 -4 -254 -15 -25 -13 -29 -13 -36 3 -7 16 -43 17
-547 14 -297 -1 -541 1 -541 5 -10 67 -9 74 16 83 19 7 25 17 25 39 0 16 -4
33 -10 36 -5 3 -10 48 -10 98 l0 92 61 34 c34 18 76 47 95 63 l34 30 10 -27
c6 -15 13 -60 17 -100 l6 -72 256 -63 c141 -34 286 -70 324 -80 37 -10 67 -13
67 -8 0 39 -26 101 -50 118 -36 26 -55 71 -41 98 9 16 4 33 -24 86 -71 137
-194 290 -242 302 -13 4 -35 23 -47 43 -13 20 -42 47 -64 61 l-41 25 6 98 c4
70 3 97 -5 97 -7 0 -12 -3 -12 -8 0 -4 -31 -40 -70 -79 -38 -40 -70 -79 -70
-88 0 -9 -9 -15 -21 -15 -11 0 -51 -18 -88 -40 -69 -41 -91 -48 -91 -29 0 6
18 18 40 27 l40 17 0 68 c0 63 -1 67 -22 67 -13 0 -31 -7 -41 -15 -21 -15 -47
-10 -47 10 0 8 -9 17 -20 20 -11 3 -22 16 -26 29 -3 13 -18 27 -36 34 -26 10
-29 15 -22 34 4 13 7 52 6 88 -1 36 -2 88 -1 115 0 54 0 138 -2 213 0 26 2 65
6 86 5 23 2 61 -5 93 -10 39 -10 62 -3 87 7 24 7 38 0 45 -7 7 -6 20 3 41 10
25 10 35 0 55 -9 16 -10 36 -5 62 9 38 10 137 4 182 -3 20 1 26 21 31 20 5 27
16 38 60 14 57 36 90 59 90 35 0 -6 112 -47 125 -18 6 -50 63 -77 140 -32 93
-35 96 -73 88 -19 -4 -42 -6 -50 -5 -8 1 -36 5 -61 8 l-47 6 -17 -54z m200
-50 c10 -29 21 -57 25 -63 4 -5 13 -27 19 -47 7 -20 24 -44 39 -54 48 -31 53
-45 26 -80 -13 -17 -24 -36 -24 -41 0 -6 -7 -16 -15 -23 -8 -7 -15 -20 -15
-30 0 -24 -19 -30 -98 -31 -37 0 -76 -4 -87 -8 -11 -5 -24 -5 -30 -1 -5 5 -23
10 -40 12 -23 2 -31 9 -33 27 -4 25 -47 101 -64 112 -14 9 9 42 43 65 16 10
34 33 39 50 6 18 20 40 30 49 11 10 20 31 20 47 0 56 14 68 83 68 l63 0 19
-52z m-11 -451 c38 -49 36 -113 -3 -151 l-29 -28 29 -41 c40 -55 40 -109 -1
-159 -24 -28 -27 -39 -17 -45 54 -33 63 -124 18 -175 l-29 -33 29 -35 c41 -49
40 -106 -2 -155 l-31 -35 31 -35 c34 -39 41 -92 20 -138 -25 -54 -111 -64
-159 -17 -25 25 -30 37 -30 79 0 41 5 56 30 84 l29 34 -29 28 c-25 24 -30 37
-30 77 0 39 6 54 29 80 l29 33 -29 33 c-23 26 -29 42 -29 80 0 40 5 53 30 77
l29 28 -29 34 c-26 29 -30 41 -30 94 0 54 2 61 25 71 14 6 25 15 25 20 0 5
-11 24 -25 42 -35 46 -35 113 1 155 22 27 32 31 74 31 44 0 52 -4 74 -33z m96
-1197 c19 -10 50 -21 68 -25 43 -9 53 -34 22 -54 -44 -29 -83 -75 -107 -129
-14 -29 -23 -55 -21 -57 2 -2 33 2 68 10 68 14 166 54 210 85 14 9 44 21 66
24 35 6 43 12 50 38 12 40 40 53 30 15 -5 -23 0 -30 48 -61 30 -19 60 -45 67
-58 17 -32 31 -45 71 -61 45 -19 109 -93 176 -204 47 -78 53 -93 48 -129 -4
-29 0 -51 14 -77 l20 -37 -22 1 c-13 0 -115 24 -228 52 l-204 52 -12 81 c-6
45 -23 107 -38 140 l-28 59 -16 -25 c-33 -50 -152 -150 -180 -150 -5 0 -17 17
-27 38 l-18 37 -15 -35 c-9 -23 -16 -84 -20 -172 l-5 -138 -38 0 c-39 0 -39 0
-39 -40 0 -38 2 -40 30 -40 30 0 30 0 30 -59 0 -33 -4 -62 -9 -65 -5 -3 -35 8
-66 24 -31 17 -60 30 -63 30 -15 0 93 -99 114 -104 22 -6 24 -12 24 -70 0 -94
20 -147 84 -222 54 -63 56 -68 56 -124 0 -42 -7 -74 -27 -116 -24 -51 -28 -75
-31 -174 -3 -76 -9 -122 -18 -135 -18 -25 -18 -49 1 -65 20 -16 19 -70 -1 -99
-14 -20 -15 -28 -4 -61 l12 -37 -238 -357 c-130 -196 -241 -356 -246 -356 -11
0 -10 49 2 135 8 48 7 84 -1 120 -9 43 -8 56 8 92 11 24 41 65 67 94 25 28 54
63 63 77 10 15 33 45 53 68 51 59 111 144 101 144 -5 0 -20 -9 -34 -21 -15
-11 -64 -38 -109 -59 -46 -21 -96 -52 -112 -69 -16 -17 -33 -28 -38 -25 -14 9
-9 97 8 148 15 44 15 48 -1 66 -15 17 -17 30 -10 82 9 77 9 78 1 208 -10 135
-23 207 -47 246 -13 22 -19 50 -19 92 0 58 2 63 45 109 55 59 83 114 91 178 5
38 15 59 41 87 34 34 37 58 9 58 -30 0 -47 36 -44 96 3 56 4 59 31 62 24 3 27
8 27 38 0 32 -2 34 -34 34 -19 0 -38 6 -43 12 -4 7 -8 65 -9 129 -3 187 -20
246 -49 175 -18 -42 -32 -46 -41 -11 -5 20 -11 23 -33 19 -22 -5 -36 4 -87 56
l-62 61 -20 -35 c-25 -42 -38 -89 -48 -169 -5 -46 -11 -60 -28 -68 -11 -5
-113 -31 -226 -59 -113 -28 -213 -53 -222 -56 -46 -14 18 125 70 153 32 17 33
20 30 63 -4 39 1 53 34 103 64 94 226 244 303 279 23 10 26 16 20 45 -3 18 -3
33 -1 33 14 0 132 -103 144 -125 10 -19 21 -25 48 -25 19 0 44 -5 55 -10 25
-14 171 -51 177 -46 2 3 -7 29 -20 58 -28 61 -80 124 -109 133 -10 4 -19 15
-19 25 0 14 10 20 42 25 24 4 59 16 78 27 49 26 277 25 330 -2z m1120 -1326
c0 -3 -26 -51 -58 -107 -32 -56 -78 -138 -102 -182 -24 -44 -51 -93 -60 -110
-9 -16 -45 -82 -81 -145 -54 -97 -64 -122 -64 -164 0 -38 -4 -51 -20 -60 -23
-13 -39 -31 -57 -66 -7 -14 -20 -31 -29 -37 -28 -21 -150 -256 -139 -267 6 -6
10 -23 10 -38 0 -21 -5 -28 -19 -28 -38 0 -52 -14 -98 -100 l-47 -88 -93 -46
c-51 -25 -100 -46 -108 -46 -13 0 -15 24 -15 155 0 136 2 155 18 164 9 5 16
13 15 18 -5 17 8 41 26 46 10 2 48 42 84 88 37 46 72 91 80 99 7 8 28 35 47
60 19 25 63 78 97 118 67 80 153 202 153 219 0 6 19 26 43 46 52 42 199 231
213 272 5 16 21 36 35 42 15 7 44 34 65 60 62 77 87 103 96 103 4 0 8 -2 8 -6z
m-628 -84 c32 0 58 -2 58 -5 0 -2 -29 -48 -65 -101 -36 -53 -65 -103 -65 -111
0 -16 -29 -57 -70 -101 -14 -15 -29 -34 -35 -43 -10 -16 -146 -220 -152 -228
-12 -16 -15 29 -14 180 1 155 4 177 24 218 13 28 24 74 27 116 l5 70 60 3 c33
1 69 6 80 11 37 17 50 18 70 5 11 -8 45 -14 77 -14z m-519 -1759 c13 -72 21
-135 18 -140 -8 -11 -259 -117 -296 -124 -9 -2 -45 259 -38 278 3 9 284 125
291 120 1 -1 13 -61 25 -134z m-496 -461 c3 -11 14 -20 24 -20 18 0 19 -9 19
-135 l0 -136 -157 -197 c-86 -108 -161 -203 -166 -210 -7 -9 -6 -17 1 -24 7
-7 12 -20 12 -30 0 -15 -4 -16 -26 -8 -14 6 -27 10 -29 10 -1 0 -29 -33 -61
-72 -32 -40 -66 -82 -75 -93 -9 -11 -38 -47 -65 -80 -26 -33 -75 -94 -109
-135 -34 -41 -117 -144 -184 -228 -68 -85 -125 -151 -128 -148 -5 4 19 50 137
261 9 17 33 59 52 95 19 36 66 121 105 190 109 196 141 262 148 303 4 28 12
40 31 47 16 6 32 28 48 63 13 30 29 58 35 61 6 4 11 18 11 30 0 13 7 29 15 36
8 7 15 17 15 23 0 5 17 35 38 66 21 31 56 88 77 126 49 90 70 113 123 136 28
12 46 28 53 46 17 44 47 57 56 23z m599 -737 c-2 -3 -17 2 -33 10 -15 8 -48
19 -73 25 -25 6 -87 29 -137 51 -51 22 -93 36 -93 33 0 -12 70 -91 169 -191
151 -154 160 -173 168 -346 5 -116 -1 -129 -68 -155 -24 -10 -45 -22 -47 -28
-2 -6 25 -38 59 -72 l62 -61 -5 -175 c-4 -111 -10 -179 -17 -188 -9 -11 -8
-23 4 -51 12 -31 15 -85 15 -304 -1 -495 -22 -683 -90 -806 -19 -34 -29 -70
-33 -115 -4 -44 -23 -112 -60 -213 -31 -82 -58 -151 -62 -155 -3 -4 -10 0 -15
8 -16 25 -90 254 -90 277 0 12 11 34 24 48 13 14 27 42 31 63 6 34 4 39 -43
82 -28 25 -63 55 -79 67 -23 17 -32 36 -45 95 -9 40 -20 99 -23 130 -6 55 -4
62 35 133 22 41 59 90 82 109 37 32 44 56 14 56 -24 0 -106 60 -126 92 -18 29
-20 51 -20 194 l0 160 55 23 c67 28 73 36 47 64 -11 12 -30 42 -42 67 -13 25
-31 56 -41 69 -16 20 -19 42 -19 130 0 107 11 149 50 196 25 31 15 93 -30 175
-22 40 -24 63 -9 91 5 11 11 56 11 100 1 77 2 81 27 92 27 12 111 93 111 108
0 4 -9 11 -21 14 -30 10 -99 75 -110 103 -8 20 22 69 229 379 l237 355 3 -367
c1 -203 0 -370 -2 -372z m-504 -70 c26 -23 22 -53 -13 -106 -29 -44 -30 -50
-24 -110 5 -47 3 -73 -9 -101 -20 -48 -20 -96 -1 -122 8 -10 15 -27 15 -37 0
-11 10 -27 22 -37 20 -15 21 -21 10 -44 l-12 -26 -200 0 c-134 0 -200 4 -200
11 0 5 18 37 40 69 57 84 58 90 21 90 -31 0 -31 1 -25 40 5 32 4 40 -9 40 -22
0 -32 19 -18 33 9 9 15 8 22 -5 12 -22 35 -23 43 -2 3 8 10 12 16 9 6 -4 8
-10 5 -15 -3 -5 -1 -11 5 -15 22 -14 90 60 184 199 54 80 101 146 104 146 3 0
14 -7 24 -17z"/>
<path d="M8017 9695 c-37 -60 -56 -101 -53 -113 3 -10 22 -42 41 -72 24 -38
35 -66 35 -92 0 -37 28 -118 41 -118 11 0 27 52 32 101 3 33 17 67 51 118 l46
72 -61 100 c-33 54 -64 99 -67 99 -4 0 -33 -43 -65 -95z m97 -67 l21 -37 -22
-38 c-12 -20 -26 -39 -31 -41 -10 -3 -52 62 -52 81 0 21 40 79 52 75 6 -2 20
-20 32 -40z"/>
<path d="M9440 5700 c-14 -4 -47 -9 -75 -10 l-50 -2 50 -9 c48 -8 105 5 105
23 0 5 -1 8 -2 7 -2 -1 -14 -5 -28 -9z"/>
</g>
</svg>
